<?xml version="1.0" encoding="UTF-8" standalone="no"?>
<!-- Created with Inkscape (http://www.inkscape.org/) -->

<svg
   width="340.40024"
   height="180.46262"
   viewBox="0 0 340.40024 180.46262"
   version="1.1"
   id="svg1"
   sodipodi:docname="store_icon_2.svg"
   inkscape:version="1.3.2 (091e20e, 2023-11-25, custom)"
   xmlns:inkscape="http://www.inkscape.org/namespaces/inkscape"
   xmlns:sodipodi="http://sodipodi.sourceforge.net/DTD/sodipodi-0.dtd"
   xmlns="http://www.w3.org/2000/svg"
   xmlns:svg="http://www.w3.org/2000/svg">
  <sodipodi:namedview
     id="namedview1"
     pagecolor="#ffffff"
     bordercolor="#000000"
     borderopacity="0.25"
     inkscape:showpageshadow="2"
     inkscape:pageopacity="0.0"
     inkscape:pagecheckerboard="0"
     inkscape:deskcolor="#d1d1d1"
     inkscape:zoom="2.4265553"
     inkscape:cx="170.20012"
     inkscape:cy="90.045341"
     inkscape:window-width="1920"
     inkscape:window-height="986"
     inkscape:window-x="-11"
     inkscape:window-y="-11"
     inkscape:window-maximized="1"
     inkscape:current-layer="svg1" />
  <defs
     id="defs1" />
  <g
     id="layer1"
     transform="translate(-2.6608214,-7.3583582)">
    <g
       id="text1"
       style="font-size:120px;line-height:0.6;font-family:'Baloo Bhaijaan 2';-inkscape-font-specification:'Baloo Bhaijaan 2, ';letter-spacing:-5.14px;word-spacing:0px;fill:none;fill-rule:evenodd;stroke:#000000;stroke-width:3.08"
       aria-label="Game  Store">
      <path
         style="font-family:Rubik;-inkscape-font-specification:Rubik;fill:#000000"
         d="m 43.360657,95.298358 q -11.04,0 -18.84,-3.84 -7.68,-3.84 -12,-11.04 -4.1999995,-7.32 -4.5599995,-17.4 -0.12,-5.16 -0.12,-11.04 0,-6 0.12,-11.28 0.36,-9.96 4.5599995,-17.04 4.32,-7.08 12.12,-10.92 7.92,-3.8399998 18.72,-3.8399998 8.76,0 15.36,2.3999998 6.6,2.28 10.92,6 4.44,3.6 6.6,7.8 2.28,4.2 2.4,7.8 0.12,1.08 -0.6,1.8 -0.72,0.72 -1.92,0.72 h -12.36 q -1.2,0 -1.8,-0.48 -0.6,-0.48 -1.08,-1.44 -0.96,-2.52 -3,-4.92 -2.04,-2.52 -5.52,-4.2 -3.48,-1.68 -9,-1.68 -8.16,0 -13.08,4.32 -4.8,4.32 -5.16,14.28 -0.36,10.44 0,21.12 0.36,10.2 5.28,14.64 5.04,4.44 13.2,4.44 5.4,0 9.6,-1.92 4.32,-1.92 6.72,-6 2.52,-4.08 2.52,-10.44 v -3.72 h -14.64 q -1.2,0 -2.04,-0.84 -0.84,-0.84 -0.84,-2.16 v -6.36 q 0,-1.32 0.84,-2.16 0.84,-0.84 2.04,-0.84 h 28.68 q 1.32,0 2.04,0.84 0.84,0.84 0.84,2.16 v 12.6 q 0,10.08 -4.44,17.4 -4.32,7.32 -12.48,11.28 -8.04,3.96 -19.08,3.96 z m 62.900093,0 q -6.24,0 -11.28,-2.4 -5.04,-2.52 -8.04,-6.6 -2.88,-4.2 -2.88,-9.36 0,-8.4 6.84,-13.32 6.84,-5.04 17.88,-6.72 l 16.44,-2.4 v -2.52 q 0,-5.04 -2.52,-7.8 -2.52,-2.76 -8.64,-2.76 -4.32,0 -7.08,1.8 -2.64,1.68 -3.96,4.56 -0.96,1.56 -2.76,1.56 h -9.48 q -1.32,0 -2.04,-0.72 -0.6,-0.72 -0.6,-1.92 0.12,-1.92 1.56,-4.68 1.56,-2.76 4.56,-5.28 3.12,-2.64 8.04,-4.44 4.92,-1.8 11.88,-1.8 7.56,0 12.72,1.92 5.28,1.8 8.4,4.92 3.12,3.12 4.56,7.32 1.44,4.2 1.44,8.88 v 37.68 q 0,1.2 -0.84,2.04 -0.84,0.84 -2.04,0.84 h -9.72 q -1.32,0 -2.16,-0.84 -0.72,-0.84 -0.72,-2.04 v -4.68 q -1.56,2.16 -4.2,4.2 -2.64,2.04 -6.48,3.36 -3.72,1.2 -8.88,1.2 z m 4.08,-11.4 q 4.2,0 7.56,-1.8 3.48,-1.8 5.4,-5.52 2.04,-3.84 2.04,-9.6 v -2.52 l -12,1.92 q -7.08,1.08 -10.56,3.48 -3.48,2.4 -3.48,5.88 0,2.64 1.56,4.56 1.68,1.8 4.2,2.76 2.52,0.84 5.28,0.84 z m 44.0599,10.2 q -1.2,0 -2.04,-0.84 -0.84,-0.84 -0.84,-2.04 v -56.64 q 0,-1.2 0.84,-2.04 0.84,-0.84 2.04,-0.84 h 9.36 q 1.2,0 2.04,0.84 0.84,0.84 0.84,2.04 v 4.08 q 2.52,-3.36 6.72,-5.64 4.32,-2.4 10.2,-2.52 13.68,-0.24 19.08,10.68 2.76,-4.8 7.92,-7.68 5.28,-3 11.64,-3 6.24,0 11.28,2.88 5.16,2.88 8.04,8.76 3,5.76 3,14.64 v 34.44 q 0,1.2 -0.84,2.04 -0.84,0.84 -2.04,0.84 h -9.84 q -1.2,0 -2.04,-0.84 -0.84,-0.84 -0.84,-2.04 v -33.48 q 0,-5.4 -1.56,-8.52 -1.56,-3.24 -4.2,-4.56 -2.64,-1.32 -5.88,-1.32 -2.64,0 -5.28,1.32 -2.64,1.32 -4.32,4.56 -1.68,3.12 -1.68,8.52 v 33.48 q 0,1.2 -0.84,2.04 -0.84,0.84 -2.04,0.84 h -9.84 q -1.2,0 -2.04,-0.84 -0.84,-0.84 -0.84,-2.04 v -33.48 q 0,-5.4 -1.68,-8.52 -1.68,-3.24 -4.32,-4.56 -2.64,-1.32 -5.64,-1.32 -2.76,0 -5.4,1.44 -2.64,1.32 -4.32,4.44 -1.68,3.12 -1.68,8.52 v 33.48 q 0,1.2 -0.84,2.04 -0.84,0.84 -2.04,0.84 z m 127.10005,1.2 q -13.32,0 -21.12,-7.68 -7.8,-7.68 -8.4,-21.84 -0.12,-1.2 -0.12,-3 0,-1.92 0.12,-3 0.48,-9.12 4.08,-15.6 3.72,-6.6 10.2,-10.08 6.48,-3.6 15.24,-3.6 9.72,0 16.32,4.08 6.6,3.96 9.96,11.16 3.36,7.08 3.36,16.44 v 2.52 q 0,1.2 -0.84,2.04 -0.84,0.84 -2.16,0.84 h -39.84 q 0,0 0,0.36 0,0.36 0,0.6 0.12,4.2 1.56,7.8 1.56,3.48 4.44,5.64 3,2.16 7.08,2.16 3.36,0 5.64,-0.96 2.28,-1.08 3.72,-2.4 1.44,-1.32 2.04,-2.16 1.08,-1.44 1.68,-1.68 0.72,-0.36 2.04,-0.36 h 10.32 q 1.2,0 1.92,0.72 0.84,0.72 0.72,1.8 -0.12,1.92 -2.04,4.68 -1.8,2.76 -5.28,5.4 -3.48,2.64 -8.76,4.44 -5.16,1.68 -11.88,1.68 z m -13.2,-37.8 h 26.52 v -0.36 q 0,-4.68 -1.56,-8.16 -1.56,-3.6 -4.56,-5.52 -3,-2.04 -7.2,-2.04 -4.2,0 -7.2,2.04 -3,1.92 -4.56,5.52 -1.44,3.48 -1.44,8.16 z"
         id="path1" />
      <path
         style="font-family:Rubik;-inkscape-font-specification:Rubik;fill:#000000"
         d="m 84.560681,186.28096 q -11.16,0 -18.72,-3.24 -7.44,-3.36 -11.4,-8.64 -3.84,-5.4 -4.08,-11.28 0,-1.08 0.72,-1.8 0.72,-0.72 1.8,-0.72 h 10.68 q 1.56,0 2.28,0.72 0.84,0.6 1.44,1.56 0.72,2.28 2.76,4.56 2.04,2.16 5.52,3.6 3.6,1.44 9,1.44 8.64,0 12.84,-2.88 4.319999,-2.88 4.319999,-7.8 0,-3.48 -2.279999,-5.52 -2.28,-2.16 -7.08,-3.84 -4.68,-1.8 -12.48,-3.72 -9,-2.16 -15.12,-5.16 -6,-3.12 -9.12,-7.8 -3,-4.68 -3,-11.88 0,-6.96 3.72,-12.36 3.84,-5.4 10.8,-8.52 7.08,-3.119997 16.8,-3.119997 7.8,0 13.8,2.159997 5.999999,2.04 9.959999,5.52 3.96,3.36 6,7.32 2.16,3.84 2.28,7.56 0,0.96 -0.72,1.8 -0.6,0.72 -1.8,0.72 h -11.16 q -0.96,0 -1.92,-0.48 -0.959999,-0.48 -1.559999,-1.8 -0.72,-3.72 -4.68,-6.36 -3.96,-2.64 -10.2,-2.64 -6.48,0 -10.44,2.4 -3.96,2.4 -3.96,7.44 0,3.36 1.92,5.64 2.04,2.16 6.36,3.84 4.44,1.68 11.64,3.6 10.2,2.28 16.679999,5.28 6.48,3 9.48,7.68 3,4.56 3,11.64 0,7.92 -4.32,13.56 -4.2,5.52 -11.88,8.52 -7.679999,3 -17.879999,3 z m 69.500029,-1.2 q -7.2,0 -12.12,-2.52 -4.92,-2.52 -7.32,-7.44 -2.4,-5.04 -2.4,-12.48 v -27.24 h -9.48 q -1.2,0 -2.04,-0.84 -0.84,-0.84 -0.84,-2.16 v -6.84 q 0,-1.2 0.84,-2.04 0.84,-0.84 2.04,-0.84 h 9.48 v -19.92 q 0,-1.2 0.72,-2.04 0.84,-0.839997 2.16,-0.839997 h 9.72 q 1.2,0 2.04,0.839997 0.84,0.84 0.84,2.04 v 19.92 h 15 q 1.2,0 2.04,0.84 0.84,0.84 0.84,2.04 v 6.84 q 0,1.32 -0.84,2.16 -0.84,0.84 -2.04,0.84 h -15 v 26.04 q 0,4.92 1.68,7.68 1.8,2.76 6.12,2.76 h 8.28 q 1.2,0 2.04,0.84 0.84,0.84 0.84,2.04 v 7.44 q 0,1.2 -0.84,2.04 -0.84,0.84 -2.04,0.84 z m 45.7401,1.2 q -9.6,0 -16.2,-3.36 -6.48,-3.36 -9.96,-9.48 -3.36,-6.12 -3.84,-14.28 -0.12,-2.16 -0.12,-5.28 0,-3.12 0.12,-5.28 0.48,-8.28 3.96,-14.28 3.6,-6.12 10.08,-9.48 6.6,-3.36 15.96,-3.36 9.36,0 15.84,3.36 6.6,3.36 10.08,9.48 3.6,6 4.08,14.28 0.12,2.16 0.12,5.28 0,3.12 -0.12,5.28 -0.48,8.16 -3.96,14.28 -3.36,6.12 -9.96,9.48 -6.48,3.36 -16.08,3.36 z m 0,-11.88 q 6.36,0 9.84,-3.96 3.48,-4.08 3.84,-11.88 0.12,-1.8 0.12,-4.68 0,-2.88 -0.12,-4.68 -0.36,-7.8 -3.84,-11.76 -3.48,-4.08 -9.84,-4.08 -6.36,0 -9.84,4.08 -3.48,3.96 -3.84,11.76 -0.12,1.8 -0.12,4.68 0,2.88 0.12,4.68 0.36,7.8 3.84,11.88 3.48,3.96 9.84,3.96 z m 41.18011,10.68 q -1.2,0 -2.04,-0.84 -0.84,-0.84 -0.84,-2.04 v -56.52 q 0,-1.32 0.84,-2.16 0.84,-0.84 2.04,-0.84 h 9.72 q 1.2,0 2.04,0.84 0.96,0.84 0.96,2.16 v 4.92 q 2.76,-3.84 7.08,-5.88 4.44,-2.04 10.2,-2.04 h 4.92 q 1.32,0 2.04,0.84 0.84,0.84 0.84,2.04 v 8.64 q 0,1.2 -0.84,2.04 -0.72,0.84 -2.04,0.84 h -9.36 q -5.76,0 -9,3.24 -3.12,3.12 -3.12,8.88 v 33 q 0,1.2 -0.84,2.04 -0.84,0.84 -2.16,0.84 z m 68.05999,1.2 q -13.32,0 -21.12,-7.68 -7.8,-7.68 -8.4,-21.84 -0.12,-1.2 -0.12,-3 0,-1.92 0.12,-3 0.48,-9.12 4.08,-15.6 3.72,-6.6 10.2,-10.08 6.48,-3.6 15.24,-3.6 9.72,0 16.32,4.08 6.6,3.96 9.96,11.16 3.36,7.08 3.36,16.44 v 2.52 q 0,1.2 -0.84,2.04 -0.84,0.84 -2.16,0.84 h -39.84 q 0,0 0,0.36 0,0.36 0,0.6 0.12,4.2 1.56,7.8 1.56,3.48 4.44,5.64 3,2.16 7.08,2.16 3.36,0 5.64,-0.96 2.28,-1.08 3.72,-2.4 1.44,-1.32 2.04,-2.16 1.08,-1.44 1.68,-1.68 0.72,-0.36 2.04,-0.36 h 10.32 q 1.2,0 1.92,0.72 0.84,0.72 0.72,1.8 -0.12,1.92 -2.04,4.68 -1.8,2.76 -5.28,5.4 -3.48,2.64 -8.76,4.44 -5.16,1.68 -11.88,1.68 z m -13.2,-37.8 h 26.52 v -0.36 q 0,-4.68 -1.56,-8.16 -1.56,-3.6 -4.56,-5.52 -3,-2.04 -7.2,-2.04 -4.2,0 -7.2,2.04 -3,1.92 -4.56,5.52 -1.44,3.48 -1.44,8.16 z"
         id="path2" />
    </g>
  </g>
</svg>
